<?xml version="1.0" encoding="utf-8"?>
<!-- Generator: Adobe Illustrator 16.0.0, SVG Export Plug-In . SVG Version: 6.00 Build 0)  -->
<!DOCTYPE svg PUBLIC "-//W3C//DTD SVG 1.1//EN" "http://www.w3.org/Graphics/SVG/1.1/DTD/svg11.dtd">
<svg version="1.1" id="Layer_1" xmlns="http://www.w3.org/2000/svg" xmlns:xlink="http://www.w3.org/1999/xlink" x="0px" y="0px"
	 width="3000px" height="3000px" viewBox="0 0 3000 3000" enable-background="new 0 0 3000 3000" xml:space="preserve">
<g>
	<g>
		<path fill="#B52E31" d="M882.422,1696.289v-369.141h47.461l225.586,297.07v-297.07h45.117v369.141h-47.461l-225.586-300v300
			H882.422z M1567.969,1681.641c-29.883,11.133-62.109,16.992-96.094,16.992c-133.594,0-200.391-63.867-200.391-192.188
			c0-121.289,64.453-182.227,193.359-182.227c36.914,0,71.484,5.273,103.125,15.234v41.016
			c-31.641-12.305-64.453-18.164-97.852-18.164c-100.781,0-151.172,48.047-151.172,142.969
			c0,102.539,49.805,153.516,148.828,153.516c15.82,0,33.398-2.344,52.734-6.445v-123.633h47.461V1681.641L1567.969,1681.641z
			 M1644.141,1553.906v-226.758h47.461v226.758c0,70.898,35.156,106.641,106.055,106.641c70.313,0,106.055-35.742,106.055-106.641
			v-226.758h47.461v226.758c0,96.68-50.977,145.313-153.516,145.313S1644.141,1650.586,1644.141,1553.906z M2083.594,1327.148
			v330.469h193.359v38.672h-240.82v-369.141H2083.594z M2345.508,1696.289h-49.805l183.398-417.773l183.398,417.773h-52.734
			l-47.461-116.016H2440.43l12.891-38.672h93.164l-69.141-166.992L2345.508,1696.289z M2713.477,1696.289v-369.141h157.617
			c70.313,0,105.469,29.297,105.469,88.477c0,48.047-34.57,83.789-103.125,106.641L3000,1696.289h-62.695l-117.188-165.82v-31.055
			c70.313-11.133,106.055-38.086,106.055-81.445c0-33.984-19.336-50.977-58.594-50.977h-105.469v329.297H2713.477L2713.477,1696.289
			z"/>
	</g>
	<path fill="#E23237" d="M0,1228.711l377.93-134.766l387.891,132.422l-62.695,499.805L377.93,1906.055L58.008,1728.516L0,1228.711z"
		/>
	<path fill="#B52E31" d="M765.82,1226.367L377.93,1093.945v812.109l325.195-179.883L765.82,1226.367L765.82,1226.367z"/>
	<path fill="#FFFFFF" d="M378.516,1188.867l-235.547,523.828l87.891-1.758l47.461-118.359h210.352l51.563,119.531l83.789,1.758
		L378.516,1188.867L378.516,1188.867z M379.102,1357.031l79.688,166.406H309.375L379.102,1357.031z"/>
</g>
</svg>
